<svg width="850" height="120" viewBox="0 0 43 51" fill="none" xmlns="http://www.w3.org/2000/svg">
  <path
    d="M23.219 0c-6.575 0-11.867 5.248-11.867 11.768v7.848h3.953v-7.848c0-4.47 3.407-7.848 7.914-7.848 4.508 0 7.914 3.378 7.914 7.848v7.848h3.953v-7.848C35.086 5.248 29.794 0 23.219 0Z"
    fill="#4CD2AE" />
  <path
    d="M31.616 51h3.47C39.436 51 43 47.465 43 43.152V27.456c0-4.313-3.565-7.848-7.914-7.848H11.344c-4.349 0-7.914 3.535-7.914 7.848v7.094c.436 2.31 1.735 7.298 6.108 10.81 2.258 1.814 4.444 2.521 7.407 3.456C20.16 49.83 25.152 51 31.608 50.992"
    fill="#079CEE" />
  <path
    d="M11.352 51h20.264c-3.454-.118-12.334-.888-20.367-7.33a32.53 32.53 0 0 1-7.811-9.12v8.594c0 4.313 3.565 7.848 7.914 7.848"
    fill="#078CD6" />
  <path
    d="M25.2 41.196c0 1.178-.793 1.964-1.981 1.964-1.188 0-1.98-.786-1.98-1.964v-4.533c-1.189-.59-1.98-1.94-1.98-3.307 0-2.16 1.774-3.92 3.952-3.92 2.179 0 3.953 1.76 3.953 3.92 0 1.375-.784 2.718-1.98 3.307v4.533h.015Z"
    fill="#4CD2AE" />
  <path
    d="M5.64 17.322a2.021 2.021 0 0 1-2.733-.762 1.987 1.987 0 0 1 .769-2.71 2.01 2.01 0 0 1 2.725.762 1.987 1.987 0 0 1-.769 2.71M1.49 12.294a1.01 1.01 0 0 1-1.363-.377.99.99 0 0 1 .388-1.35 1.01 1.01 0 0 1 1.362.376.993.993 0 0 1-.38 1.351"
    fill="#079CEE" />
</svg>